<svg width="140" height="26" viewBox="0 0 140 26" fill="none" xmlns="http://www.w3.org/2000/svg">
<path d="M51.4321 3.25342V19.5764H58.0481V22.663H47.405V3.25342H51.4321Z" fill="#1A73E8"/>
<path d="M66.879 7.00757C69.4391 7.00757 71.1938 8.17548 72.1431 9.45463V7.25784H76.199V22.6632H72.1431V20.4108C71.1938 21.7455 69.3816 22.9134 66.8503 22.9134C62.8231 22.9134 59.6014 19.7156 59.6014 14.9049C59.6014 10.0942 62.8231 7.00757 66.879 7.00757ZM67.9146 10.4279C65.7572 10.4279 63.7149 11.9851 63.7149 14.9049C63.7149 17.8247 65.7572 19.4931 67.9146 19.4931C70.1295 19.4931 72.1431 17.8803 72.1431 14.9605C72.1431 12.0407 70.1295 10.4279 67.9146 10.4279Z" fill="#1A73E8"/>
<path d="M91.3006 14.1541C91.3006 11.6793 89.8911 10.3445 87.7625 10.3445C85.5763 10.3445 84.1668 11.6793 84.1668 14.1541V22.6632H80.1397V7.25786H84.1668V9.17658C85.2024 7.86963 86.9283 7.0354 88.9706 7.0354C92.6813 7.0354 95.3277 9.37123 95.3277 13.6258V22.6632H91.3006V14.1541Z" fill="#1A73E8"/>
<path d="M105.424 7.00762C107.524 7.00762 109.538 7.95307 110.631 9.39906V2.08569H114.715V22.6632H110.631V20.383C109.682 21.8012 107.898 22.9135 105.396 22.9135C101.34 22.9135 98.1179 19.7156 98.1179 14.9049C98.1179 10.0942 101.34 7.00762 105.424 7.00762ZM106.431 10.4279C104.274 10.4279 102.231 11.9852 102.231 14.9049C102.231 17.8247 104.274 19.4932 106.431 19.4932C108.646 19.4932 110.66 17.8803 110.66 14.9606C110.66 12.0408 108.646 10.4279 106.431 10.4279Z" fill="#1A73E8"/>
<path d="M118.225 3.14227C118.225 1.86313 119.26 0.862061 120.699 0.862061C122.108 0.862061 123.172 1.86313 123.172 3.14227C123.172 4.42142 122.108 5.42249 120.699 5.42249C119.26 5.42249 118.225 4.42142 118.225 3.14227ZM118.656 7.25778H122.683V22.6631H118.656V7.25778Z" fill="#1A73E8"/>
<path d="M132.176 17.8803L129.271 22.6632H124.956L130.162 14.9327L124.898 7.25781H129.443L132.694 12.0129L135.628 7.25781H139.942L134.707 14.9327L140 22.6632H135.455L132.176 17.8803Z" fill="#1A73E8"/>
<path d="M26.8954 26C24.4503 26 22.1491 25.3605 20.1643 24.2482C24.1915 21.9957 26.8954 17.7968 26.8954 12.9861H13.4333C13.4333 8.17543 16.1372 3.9765 20.1643 1.72409C22.1491 0.639597 24.4503 0.027832 26.8954 0.027832C34.3168 0.027832 40.3287 5.8396 40.3287 13.0139C40.3287 20.1883 34.3168 26 26.8954 26Z" fill="#FF9731"/>
<path d="M20.1643 24.276C16.1372 22.0235 13.4333 17.8246 13.4333 13.0139H26.8666C26.8954 17.8246 24.1915 22.0235 20.1643 24.276Z" fill="url(#paint0_linear_2_4488)"/>
<path d="M20.1644 24.2759C24.1915 22.0235 26.8954 17.8246 26.8954 13.0139H13.4333C13.4333 8.20321 16.1372 4.00428 20.1644 1.75187C18.1796 0.639572 15.8784 0 13.4333 0C6.01192 0.0278075 0 5.83957 0 13.0139C0 20.1882 6.01192 26 13.4333 26C15.8784 26 18.1796 25.3882 20.1644 24.2759Z" fill="#1A73E8"/>
<g style="mix-blend-mode:multiply" opacity="0.3">
<path d="M13.4333 13.014H26.8666L20.1643 1.75195C16.1372 4.00436 13.4333 8.20329 13.4333 13.014Z" fill="url(#paint1_linear_2_4488)"/>
</g>
<g style="mix-blend-mode:multiply" opacity="0.3">
<path d="M13.4333 12.9861C13.4333 8.1754 16.1372 3.97647 20.1643 1.72406C18.1795 0.639572 15.8783 0 13.4333 0C10.9883 0 8.68705 0.639572 6.73102 1.72406L13.4333 12.9861Z" fill="url(#paint2_linear_2_4488)"/>
</g>
<defs>
<linearGradient id="paint0_linear_2_4488" x1="6.63197" y1="3.25012" x2="27.2407" y2="23.6803" gradientUnits="userSpaceOnUse">
<stop stop-color="#FFCF8B"/>
<stop offset="1" stop-color="#FF8B79"/>
</linearGradient>
<linearGradient id="paint1_linear_2_4488" x1="20.1644" y1="-8.65352" x2="20.1644" y2="12.6631" gradientUnits="userSpaceOnUse">
<stop offset="0.4935" stop-color="white"/>
<stop offset="0.5384" stop-color="#F3F3F3"/>
<stop offset="0.6207" stop-color="#D1D1D1"/>
<stop offset="0.731" stop-color="#9C9C9C"/>
<stop offset="0.8655" stop-color="#515151"/>
<stop offset="1"/>
</linearGradient>
<linearGradient id="paint2_linear_2_4488" x1="9.33685" y1="-4.39353" x2="16.9073" y2="8.36593" gradientUnits="userSpaceOnUse">
<stop offset="0.4935" stop-color="white"/>
<stop offset="0.5384" stop-color="#F3F3F3"/>
<stop offset="0.6207" stop-color="#D1D1D1"/>
<stop offset="0.731" stop-color="#9C9C9C"/>
<stop offset="0.8655" stop-color="#515151"/>
<stop offset="1"/>
</linearGradient>
</defs>
</svg>
