<svg width="140" height="26" viewBox="0 0 140 26" fill="none" xmlns="http://www.w3.org/2000/svg">
<path d="M51.4324 3.25391V19.5769H58.0484V22.6635H47.4053V3.25391H51.4324Z" fill="white"/>
<path d="M66.8792 7.00781C69.4393 7.00781 71.1939 8.17573 72.1432 9.45487V7.25808H76.1991V22.6634H72.1432V20.411C71.1939 21.7458 69.3817 22.9137 66.8504 22.9137C62.8233 22.9137 59.6016 19.7158 59.6016 14.9051C59.6016 10.0944 62.8233 7.00781 66.8792 7.00781ZM67.9147 10.4281C65.7573 10.4281 63.715 11.9854 63.715 14.9051C63.715 17.8249 65.7573 19.4934 67.9147 19.4934C70.1296 19.4934 72.1432 17.8805 72.1432 14.9608C72.1432 12.041 70.1296 10.4281 67.9147 10.4281Z" fill="white"/>
<path d="M91.3005 14.1539C91.3005 11.679 89.891 10.3442 87.7624 10.3442C85.5763 10.3442 84.1668 11.679 84.1668 14.1539V22.663H80.1396V7.25762H84.1668V9.17633C85.2023 7.86938 86.9282 7.03516 88.9705 7.03516C92.6812 7.03516 95.3276 9.37099 95.3276 13.6255V22.663H91.3005V14.1539Z" fill="white"/>
<path d="M105.425 7.00786C107.524 7.00786 109.538 7.95332 110.631 9.39931V2.08594H114.716V22.6635H110.631V20.3833C109.682 21.8014 107.898 22.9137 105.396 22.9137C101.34 22.9137 98.1182 19.7159 98.1182 14.9052C98.1182 10.0945 101.34 7.00786 105.425 7.00786ZM106.431 10.4282C104.274 10.4282 102.232 11.9854 102.232 14.9052C102.232 17.825 104.274 19.4934 106.431 19.4934C108.646 19.4934 110.66 17.8806 110.66 14.9608C110.66 12.041 108.646 10.4282 106.431 10.4282Z" fill="white"/>
<path d="M118.225 3.14252C118.225 1.86337 119.26 0.862305 120.698 0.862305C122.108 0.862305 123.172 1.86337 123.172 3.14252C123.172 4.42166 122.108 5.42273 120.698 5.42273C119.26 5.42273 118.225 4.42166 118.225 3.14252ZM118.656 7.25803H122.683V22.6634H118.656V7.25803Z" fill="white"/>
<path d="M132.176 17.8803L129.271 22.6632H124.956L130.162 14.9327L124.898 7.25781H129.443L132.694 12.0129L135.628 7.25781H139.943L134.707 14.9327L140 22.6632H135.455L132.176 17.8803Z" fill="white"/>
<path d="M26.8957 25.9995C24.4506 25.9995 22.1494 25.36 20.1646 24.2477C24.1918 21.9953 26.8957 17.7963 26.8957 12.9856H13.4336C13.4336 8.17494 16.1375 3.97601 20.1646 1.7236C22.1494 0.639108 24.4506 0.0273438 26.8957 0.0273438C34.3171 0.0273438 40.329 5.83911 40.329 13.0134C40.329 20.1878 34.3171 25.9995 26.8957 25.9995Z" fill="#D3D3D3"/>
<path d="M20.1646 24.2757C16.1375 22.0233 13.4336 17.8244 13.4336 13.0137H26.8669C26.8957 17.8244 24.1918 22.0233 20.1646 24.2757Z" fill="url(#paint0_linear_113_2)"/>
<path d="M20.1644 24.2759C24.1915 22.0235 26.8954 17.8246 26.8954 13.0139H13.4333C13.4333 8.20321 16.1372 4.00428 20.1644 1.75187C18.1796 0.639572 15.8784 0 13.4333 0C6.01192 0.0278075 0 5.83957 0 13.0139C0 20.1882 6.01192 26 13.4333 26C15.8784 26 18.1796 25.3882 20.1644 24.2759Z" fill="white"/>
<g style="mix-blend-mode:multiply" opacity="0.3">
<path d="M13.4336 13.014H26.8669L20.1646 1.75195C16.1375 4.00436 13.4336 8.20329 13.4336 13.014Z" fill="url(#paint1_linear_113_2)"/>
</g>
<g style="mix-blend-mode:multiply" opacity="0.3">
<path d="M13.4337 12.9861C13.4337 8.1754 16.1376 3.97647 20.1648 1.72406C18.18 0.639572 15.8788 0 13.4337 0C10.9887 0 8.68748 0.639572 6.73145 1.72406L13.4337 12.9861Z" fill="url(#paint2_linear_113_2)"/>
</g>
<defs>
<linearGradient id="paint0_linear_113_2" x1="6.63228" y1="3.24987" x2="27.241" y2="23.6801" gradientUnits="userSpaceOnUse">
<stop stop-color="#FFCF8B"/>
<stop offset="1" stop-color="#FF8B79"/>
</linearGradient>
<linearGradient id="paint1_linear_113_2" x1="20.1647" y1="-8.65352" x2="20.1647" y2="12.6631" gradientUnits="userSpaceOnUse">
<stop offset="0.4935" stop-color="white"/>
<stop offset="0.5384" stop-color="#F3F3F3"/>
<stop offset="0.6207" stop-color="#D1D1D1"/>
<stop offset="0.731" stop-color="#9C9C9C"/>
<stop offset="0.8655" stop-color="#515151"/>
<stop offset="1"/>
</linearGradient>
<linearGradient id="paint2_linear_113_2" x1="9.33728" y1="-4.39353" x2="16.9078" y2="8.36593" gradientUnits="userSpaceOnUse">
<stop offset="0.4935" stop-color="white"/>
<stop offset="0.5384" stop-color="#F3F3F3"/>
<stop offset="0.6207" stop-color="#D1D1D1"/>
<stop offset="0.731" stop-color="#9C9C9C"/>
<stop offset="0.8655" stop-color="#515151"/>
<stop offset="1"/>
</linearGradient>
</defs>
</svg>
