<svg width="326" height="358" viewBox="0 0 326 358" fill="none" xmlns="http://www.w3.org/2000/svg">
<circle cx="3" cy="3" r="3" fill="#1A73E8" fill-opacity="0.2"/>
<circle cx="35" cy="3" r="3" fill="#1A73E8" fill-opacity="0.2"/>
<circle cx="67" cy="3" r="3" fill="#1A73E8" fill-opacity="0.2"/>
<circle cx="99" cy="3" r="3" fill="#1A73E8" fill-opacity="0.2"/>
<circle cx="131" cy="3" r="3" fill="#1A73E8" fill-opacity="0.2"/>
<circle cx="163" cy="3" r="3" fill="#1A73E8" fill-opacity="0.2"/>
<circle cx="195" cy="3" r="3" fill="#1A73E8" fill-opacity="0.2"/>
<circle cx="227" cy="3" r="3" fill="#1A73E8" fill-opacity="0.2"/>
<circle cx="259" cy="3" r="3" fill="#1A73E8" fill-opacity="0.2"/>
<circle cx="291" cy="3" r="3" fill="#1A73E8" fill-opacity="0.2"/>
<circle cx="323" cy="3" r="3" fill="#1A73E8" fill-opacity="0.2"/>
<circle cx="19" cy="3" r="3" fill="#1A73E8" fill-opacity="0.2"/>
<circle cx="51" cy="3" r="3" fill="#1A73E8" fill-opacity="0.2"/>
<circle cx="83" cy="3" r="3" fill="#1A73E8" fill-opacity="0.2"/>
<circle cx="115" cy="3" r="3" fill="#1A73E8" fill-opacity="0.2"/>
<circle cx="147" cy="3" r="3" fill="#1A73E8" fill-opacity="0.2"/>
<circle cx="179" cy="3" r="3" fill="#1A73E8" fill-opacity="0.2"/>
<circle cx="211" cy="3" r="3" fill="#1A73E8" fill-opacity="0.2"/>
<circle cx="243" cy="3" r="3" fill="#1A73E8" fill-opacity="0.2"/>
<circle cx="275" cy="3" r="3" fill="#1A73E8" fill-opacity="0.2"/>
<circle cx="307" cy="3" r="3" fill="#1A73E8" fill-opacity="0.2"/>
<circle cx="3" cy="19" r="3" fill="#1A73E8" fill-opacity="0.2"/>
<circle cx="35" cy="19" r="3" fill="#1A73E8" fill-opacity="0.2"/>
<circle cx="67" cy="19" r="3" fill="#1A73E8" fill-opacity="0.2"/>
<circle cx="99" cy="19" r="3" fill="#1A73E8" fill-opacity="0.2"/>
<circle cx="131" cy="19" r="3" fill="#1A73E8" fill-opacity="0.2"/>
<circle cx="163" cy="19" r="3" fill="#1A73E8" fill-opacity="0.2"/>
<circle cx="195" cy="19" r="3" fill="#1A73E8" fill-opacity="0.2"/>
<circle cx="227" cy="19" r="3" fill="#1A73E8" fill-opacity="0.2"/>
<circle cx="259" cy="19" r="3" fill="#1A73E8" fill-opacity="0.2"/>
<circle cx="291" cy="19" r="3" fill="#1A73E8" fill-opacity="0.2"/>
<circle cx="323" cy="19" r="3" fill="#1A73E8" fill-opacity="0.2"/>
<circle cx="19" cy="19" r="3" fill="#1A73E8" fill-opacity="0.2"/>
<circle cx="51" cy="19" r="3" fill="#1A73E8" fill-opacity="0.2"/>
<circle cx="83" cy="19" r="3" fill="#1A73E8" fill-opacity="0.2"/>
<circle cx="115" cy="19" r="3" fill="#1A73E8" fill-opacity="0.2"/>
<circle cx="147" cy="19" r="3" fill="#1A73E8" fill-opacity="0.2"/>
<circle cx="179" cy="19" r="3" fill="#1A73E8" fill-opacity="0.2"/>
<circle cx="211" cy="19" r="3" fill="#1A73E8" fill-opacity="0.2"/>
<circle cx="243" cy="19" r="3" fill="#1A73E8" fill-opacity="0.2"/>
<circle cx="275" cy="19" r="3" fill="#1A73E8" fill-opacity="0.2"/>
<circle cx="307" cy="19" r="3" fill="#1A73E8" fill-opacity="0.2"/>
<circle cx="3" cy="35" r="3" fill="#1A73E8" fill-opacity="0.2"/>
<circle cx="35" cy="35" r="3" fill="#1A73E8" fill-opacity="0.2"/>
<circle cx="67" cy="35" r="3" fill="#1A73E8" fill-opacity="0.2"/>
<circle cx="99" cy="35" r="3" fill="#1A73E8" fill-opacity="0.2"/>
<circle cx="131" cy="35" r="3" fill="#1A73E8" fill-opacity="0.2"/>
<circle cx="163" cy="35" r="3" fill="#1A73E8" fill-opacity="0.2"/>
<circle cx="195" cy="35" r="3" fill="#1A73E8" fill-opacity="0.2"/>
<circle cx="227" cy="35" r="3" fill="#1A73E8" fill-opacity="0.2"/>
<circle cx="259" cy="35" r="3" fill="#1A73E8" fill-opacity="0.2"/>
<circle cx="291" cy="35" r="3" fill="#1A73E8" fill-opacity="0.2"/>
<circle cx="323" cy="35" r="3" fill="#1A73E8" fill-opacity="0.2"/>
<circle cx="19" cy="35" r="3" fill="#1A73E8" fill-opacity="0.2"/>
<circle cx="51" cy="35" r="3" fill="#1A73E8" fill-opacity="0.2"/>
<circle cx="83" cy="35" r="3" fill="#1A73E8" fill-opacity="0.2"/>
<circle cx="115" cy="35" r="3" fill="#1A73E8" fill-opacity="0.2"/>
<circle cx="147" cy="35" r="3" fill="#1A73E8" fill-opacity="0.2"/>
<circle cx="179" cy="35" r="3" fill="#1A73E8" fill-opacity="0.2"/>
<circle cx="211" cy="35" r="3" fill="#1A73E8" fill-opacity="0.2"/>
<circle cx="243" cy="35" r="3" fill="#1A73E8" fill-opacity="0.2"/>
<circle cx="275" cy="35" r="3" fill="#1A73E8" fill-opacity="0.2"/>
<circle cx="307" cy="35" r="3" fill="#1A73E8" fill-opacity="0.2"/>
<circle cx="3" cy="51" r="3" fill="#1A73E8" fill-opacity="0.2"/>
<circle cx="35" cy="51" r="3" fill="#1A73E8" fill-opacity="0.2"/>
<circle cx="67" cy="51" r="3" fill="#1A73E8" fill-opacity="0.2"/>
<circle cx="99" cy="51" r="3" fill="#1A73E8" fill-opacity="0.2"/>
<circle cx="131" cy="51" r="3" fill="#1A73E8" fill-opacity="0.2"/>
<circle cx="163" cy="51" r="3" fill="#1A73E8" fill-opacity="0.2"/>
<circle cx="195" cy="51" r="3" fill="#1A73E8" fill-opacity="0.2"/>
<circle cx="227" cy="51" r="3" fill="#1A73E8" fill-opacity="0.2"/>
<circle cx="259" cy="51" r="3" fill="#1A73E8" fill-opacity="0.2"/>
<circle cx="291" cy="51" r="3" fill="#1A73E8" fill-opacity="0.2"/>
<circle cx="323" cy="51" r="3" fill="#1A73E8" fill-opacity="0.2"/>
<circle cx="19" cy="51" r="3" fill="#1A73E8" fill-opacity="0.2"/>
<circle cx="51" cy="51" r="3" fill="#1A73E8" fill-opacity="0.2"/>
<circle cx="83" cy="51" r="3" fill="#1A73E8" fill-opacity="0.2"/>
<circle cx="115" cy="51" r="3" fill="#1A73E8" fill-opacity="0.2"/>
<circle cx="147" cy="51" r="3" fill="#1A73E8" fill-opacity="0.2"/>
<circle cx="179" cy="51" r="3" fill="#1A73E8" fill-opacity="0.2"/>
<circle cx="211" cy="51" r="3" fill="#1A73E8" fill-opacity="0.2"/>
<circle cx="243" cy="51" r="3" fill="#1A73E8" fill-opacity="0.2"/>
<circle cx="275" cy="51" r="3" fill="#1A73E8" fill-opacity="0.2"/>
<circle cx="307" cy="51" r="3" fill="#1A73E8" fill-opacity="0.2"/>
<circle cx="3" cy="67" r="3" fill="#1A73E8" fill-opacity="0.2"/>
<circle cx="35" cy="67" r="3" fill="#1A73E8" fill-opacity="0.2"/>
<circle cx="67" cy="67" r="3" fill="#1A73E8" fill-opacity="0.2"/>
<circle cx="99" cy="67" r="3" fill="#1A73E8" fill-opacity="0.2"/>
<circle cx="131" cy="67" r="3" fill="#1A73E8" fill-opacity="0.2"/>
<circle cx="163" cy="67" r="3" fill="#1A73E8" fill-opacity="0.2"/>
<circle cx="195" cy="67" r="3" fill="#1A73E8" fill-opacity="0.2"/>
<circle cx="227" cy="67" r="3" fill="#1A73E8" fill-opacity="0.2"/>
<circle cx="259" cy="67" r="3" fill="#1A73E8" fill-opacity="0.2"/>
<circle cx="291" cy="67" r="3" fill="#1A73E8" fill-opacity="0.2"/>
<circle cx="323" cy="67" r="3" fill="#1A73E8" fill-opacity="0.2"/>
<circle cx="19" cy="67" r="3" fill="#1A73E8" fill-opacity="0.2"/>
<circle cx="51" cy="67" r="3" fill="#1A73E8" fill-opacity="0.2"/>
<circle cx="83" cy="67" r="3" fill="#1A73E8" fill-opacity="0.2"/>
<circle cx="115" cy="67" r="3" fill="#1A73E8" fill-opacity="0.2"/>
<circle cx="147" cy="67" r="3" fill="#1A73E8" fill-opacity="0.2"/>
<circle cx="179" cy="67" r="3" fill="#1A73E8" fill-opacity="0.2"/>
<circle cx="211" cy="67" r="3" fill="#1A73E8" fill-opacity="0.2"/>
<circle cx="243" cy="67" r="3" fill="#1A73E8" fill-opacity="0.2"/>
<circle cx="275" cy="67" r="3" fill="#1A73E8" fill-opacity="0.2"/>
<circle cx="307" cy="67" r="3" fill="#1A73E8" fill-opacity="0.2"/>
<circle cx="3" cy="83" r="3" fill="#1A73E8" fill-opacity="0.2"/>
<circle cx="35" cy="83" r="3" fill="#1A73E8" fill-opacity="0.2"/>
<circle cx="67" cy="83" r="3" fill="#1A73E8" fill-opacity="0.2"/>
<circle cx="99" cy="83" r="3" fill="#1A73E8" fill-opacity="0.2"/>
<circle cx="131" cy="83" r="3" fill="#1A73E8" fill-opacity="0.2"/>
<circle cx="163" cy="83" r="3" fill="#1A73E8" fill-opacity="0.2"/>
<circle cx="195" cy="83" r="3" fill="#1A73E8" fill-opacity="0.2"/>
<circle cx="227" cy="83" r="3" fill="#1A73E8" fill-opacity="0.2"/>
<circle cx="259" cy="83" r="3" fill="#1A73E8" fill-opacity="0.2"/>
<circle cx="291" cy="83" r="3" fill="#1A73E8" fill-opacity="0.2"/>
<circle cx="323" cy="83" r="3" fill="#1A73E8" fill-opacity="0.2"/>
<circle cx="19" cy="83" r="3" fill="#1A73E8" fill-opacity="0.2"/>
<circle cx="51" cy="83" r="3" fill="#1A73E8" fill-opacity="0.2"/>
<circle cx="83" cy="83" r="3" fill="#1A73E8" fill-opacity="0.2"/>
<circle cx="115" cy="83" r="3" fill="#1A73E8" fill-opacity="0.2"/>
<circle cx="147" cy="83" r="3" fill="#1A73E8" fill-opacity="0.2"/>
<circle cx="179" cy="83" r="3" fill="#1A73E8" fill-opacity="0.2"/>
<circle cx="211" cy="83" r="3" fill="#1A73E8" fill-opacity="0.2"/>
<circle cx="243" cy="83" r="3" fill="#1A73E8" fill-opacity="0.2"/>
<circle cx="275" cy="83" r="3" fill="#1A73E8" fill-opacity="0.2"/>
<circle cx="307" cy="83" r="3" fill="#1A73E8" fill-opacity="0.2"/>
<circle cx="3" cy="99" r="3" fill="#1A73E8" fill-opacity="0.2"/>
<circle cx="35" cy="99" r="3" fill="#1A73E8" fill-opacity="0.2"/>
<circle cx="67" cy="99" r="3" fill="#1A73E8" fill-opacity="0.2"/>
<circle cx="99" cy="99" r="3" fill="#1A73E8" fill-opacity="0.2"/>
<circle cx="131" cy="99" r="3" fill="#1A73E8" fill-opacity="0.2"/>
<circle cx="163" cy="99" r="3" fill="#1A73E8" fill-opacity="0.2"/>
<circle cx="195" cy="99" r="3" fill="#1A73E8" fill-opacity="0.2"/>
<circle cx="227" cy="99" r="3" fill="#1A73E8" fill-opacity="0.2"/>
<circle cx="259" cy="99" r="3" fill="#1A73E8" fill-opacity="0.2"/>
<circle cx="291" cy="99" r="3" fill="#1A73E8" fill-opacity="0.2"/>
<circle cx="323" cy="99" r="3" fill="#1A73E8" fill-opacity="0.2"/>
<circle cx="19" cy="99" r="3" fill="#1A73E8" fill-opacity="0.2"/>
<circle cx="51" cy="99" r="3" fill="#1A73E8" fill-opacity="0.2"/>
<circle cx="83" cy="99" r="3" fill="#1A73E8" fill-opacity="0.2"/>
<circle cx="115" cy="99" r="3" fill="#1A73E8" fill-opacity="0.2"/>
<circle cx="147" cy="99" r="3" fill="#1A73E8" fill-opacity="0.2"/>
<circle cx="179" cy="99" r="3" fill="#1A73E8" fill-opacity="0.2"/>
<circle cx="211" cy="99" r="3" fill="#1A73E8" fill-opacity="0.2"/>
<circle cx="243" cy="99" r="3" fill="#1A73E8" fill-opacity="0.2"/>
<circle cx="275" cy="99" r="3" fill="#1A73E8" fill-opacity="0.2"/>
<circle cx="307" cy="99" r="3" fill="#1A73E8" fill-opacity="0.2"/>
<circle cx="3" cy="115" r="3" fill="#1A73E8" fill-opacity="0.2"/>
<circle cx="35" cy="115" r="3" fill="#1A73E8" fill-opacity="0.2"/>
<circle cx="67" cy="115" r="3" fill="#1A73E8" fill-opacity="0.2"/>
<circle cx="99" cy="115" r="3" fill="#1A73E8" fill-opacity="0.2"/>
<circle cx="131" cy="115" r="3" fill="#1A73E8" fill-opacity="0.2"/>
<circle cx="163" cy="115" r="3" fill="#1A73E8" fill-opacity="0.2"/>
<circle cx="195" cy="115" r="3" fill="#1A73E8" fill-opacity="0.2"/>
<circle cx="227" cy="115" r="3" fill="#1A73E8" fill-opacity="0.2"/>
<circle cx="259" cy="115" r="3" fill="#1A73E8" fill-opacity="0.2"/>
<circle cx="291" cy="115" r="3" fill="#1A73E8" fill-opacity="0.2"/>
<circle cx="323" cy="115" r="3" fill="#1A73E8" fill-opacity="0.2"/>
<circle cx="19" cy="115" r="3" fill="#1A73E8" fill-opacity="0.2"/>
<circle cx="51" cy="115" r="3" fill="#1A73E8" fill-opacity="0.2"/>
<circle cx="83" cy="115" r="3" fill="#1A73E8" fill-opacity="0.2"/>
<circle cx="115" cy="115" r="3" fill="#1A73E8" fill-opacity="0.2"/>
<circle cx="147" cy="115" r="3" fill="#1A73E8" fill-opacity="0.2"/>
<circle cx="179" cy="115" r="3" fill="#1A73E8" fill-opacity="0.2"/>
<circle cx="211" cy="115" r="3" fill="#1A73E8" fill-opacity="0.2"/>
<circle cx="243" cy="115" r="3" fill="#1A73E8" fill-opacity="0.2"/>
<circle cx="275" cy="115" r="3" fill="#1A73E8" fill-opacity="0.2"/>
<circle cx="307" cy="115" r="3" fill="#1A73E8" fill-opacity="0.2"/>
<circle cx="3" cy="131" r="3" fill="#1A73E8" fill-opacity="0.2"/>
<circle cx="35" cy="131" r="3" fill="#1A73E8" fill-opacity="0.2"/>
<circle cx="67" cy="131" r="3" fill="#1A73E8" fill-opacity="0.2"/>
<circle cx="99" cy="131" r="3" fill="#1A73E8" fill-opacity="0.2"/>
<circle cx="131" cy="131" r="3" fill="#1A73E8" fill-opacity="0.2"/>
<circle cx="163" cy="131" r="3" fill="#1A73E8" fill-opacity="0.2"/>
<circle cx="195" cy="131" r="3" fill="#1A73E8" fill-opacity="0.2"/>
<circle cx="227" cy="131" r="3" fill="#1A73E8" fill-opacity="0.2"/>
<circle cx="259" cy="131" r="3" fill="#1A73E8" fill-opacity="0.2"/>
<circle cx="291" cy="131" r="3" fill="#1A73E8" fill-opacity="0.2"/>
<circle cx="323" cy="131" r="3" fill="#1A73E8" fill-opacity="0.2"/>
<circle cx="19" cy="131" r="3" fill="#1A73E8" fill-opacity="0.2"/>
<circle cx="51" cy="131" r="3" fill="#1A73E8" fill-opacity="0.2"/>
<circle cx="83" cy="131" r="3" fill="#1A73E8" fill-opacity="0.2"/>
<circle cx="115" cy="131" r="3" fill="#1A73E8" fill-opacity="0.2"/>
<circle cx="147" cy="131" r="3" fill="#1A73E8" fill-opacity="0.2"/>
<circle cx="179" cy="131" r="3" fill="#1A73E8" fill-opacity="0.2"/>
<circle cx="211" cy="131" r="3" fill="#1A73E8" fill-opacity="0.2"/>
<circle cx="243" cy="131" r="3" fill="#1A73E8" fill-opacity="0.2"/>
<circle cx="275" cy="131" r="3" fill="#1A73E8" fill-opacity="0.2"/>
<circle cx="307" cy="131" r="3" fill="#1A73E8" fill-opacity="0.2"/>
<circle cx="3" cy="147" r="3" fill="#1A73E8" fill-opacity="0.2"/>
<circle cx="35" cy="147" r="3" fill="#1A73E8" fill-opacity="0.2"/>
<circle cx="67" cy="147" r="3" fill="#1A73E8" fill-opacity="0.2"/>
<circle cx="99" cy="147" r="3" fill="#1A73E8" fill-opacity="0.2"/>
<circle cx="131" cy="147" r="3" fill="#1A73E8" fill-opacity="0.2"/>
<circle cx="163" cy="147" r="3" fill="#1A73E8" fill-opacity="0.2"/>
<circle cx="195" cy="147" r="3" fill="#1A73E8" fill-opacity="0.2"/>
<circle cx="227" cy="147" r="3" fill="#1A73E8" fill-opacity="0.2"/>
<circle cx="259" cy="147" r="3" fill="#1A73E8" fill-opacity="0.2"/>
<circle cx="291" cy="147" r="3" fill="#1A73E8" fill-opacity="0.2"/>
<circle cx="323" cy="147" r="3" fill="#1A73E8" fill-opacity="0.2"/>
<circle cx="19" cy="147" r="3" fill="#1A73E8" fill-opacity="0.2"/>
<circle cx="51" cy="147" r="3" fill="#1A73E8" fill-opacity="0.2"/>
<circle cx="83" cy="147" r="3" fill="#1A73E8" fill-opacity="0.2"/>
<circle cx="115" cy="147" r="3" fill="#1A73E8" fill-opacity="0.2"/>
<circle cx="147" cy="147" r="3" fill="#1A73E8" fill-opacity="0.2"/>
<circle cx="179" cy="147" r="3" fill="#1A73E8" fill-opacity="0.2"/>
<circle cx="211" cy="147" r="3" fill="#1A73E8" fill-opacity="0.2"/>
<circle cx="243" cy="147" r="3" fill="#1A73E8" fill-opacity="0.2"/>
<circle cx="275" cy="147" r="3" fill="#1A73E8" fill-opacity="0.2"/>
<circle cx="307" cy="147" r="3" fill="#1A73E8" fill-opacity="0.2"/>
<circle cx="3" cy="163" r="3" fill="#1A73E8" fill-opacity="0.2"/>
<circle cx="35" cy="163" r="3" fill="#1A73E8" fill-opacity="0.2"/>
<circle cx="67" cy="163" r="3" fill="#1A73E8" fill-opacity="0.2"/>
<circle cx="99" cy="163" r="3" fill="#1A73E8" fill-opacity="0.2"/>
<circle cx="131" cy="163" r="3" fill="#1A73E8" fill-opacity="0.2"/>
<circle cx="163" cy="163" r="3" fill="#1A73E8" fill-opacity="0.2"/>
<circle cx="195" cy="163" r="3" fill="#1A73E8" fill-opacity="0.2"/>
<circle cx="227" cy="163" r="3" fill="#1A73E8" fill-opacity="0.2"/>
<circle cx="259" cy="163" r="3" fill="#1A73E8" fill-opacity="0.2"/>
<circle cx="291" cy="163" r="3" fill="#1A73E8" fill-opacity="0.2"/>
<circle cx="323" cy="163" r="3" fill="#1A73E8" fill-opacity="0.2"/>
<circle cx="19" cy="163" r="3" fill="#1A73E8" fill-opacity="0.2"/>
<circle cx="51" cy="163" r="3" fill="#1A73E8" fill-opacity="0.2"/>
<circle cx="83" cy="163" r="3" fill="#1A73E8" fill-opacity="0.2"/>
<circle cx="115" cy="163" r="3" fill="#1A73E8" fill-opacity="0.2"/>
<circle cx="147" cy="163" r="3" fill="#1A73E8" fill-opacity="0.2"/>
<circle cx="179" cy="163" r="3" fill="#1A73E8" fill-opacity="0.2"/>
<circle cx="211" cy="163" r="3" fill="#1A73E8" fill-opacity="0.2"/>
<circle cx="243" cy="163" r="3" fill="#1A73E8" fill-opacity="0.2"/>
<circle cx="275" cy="163" r="3" fill="#1A73E8" fill-opacity="0.2"/>
<circle cx="307" cy="163" r="3" fill="#1A73E8" fill-opacity="0.2"/>
<circle cx="3" cy="179" r="3" fill="#1A73E8" fill-opacity="0.2"/>
<circle cx="35" cy="179" r="3" fill="#1A73E8" fill-opacity="0.2"/>
<circle cx="67" cy="179" r="3" fill="#1A73E8" fill-opacity="0.2"/>
<circle cx="99" cy="179" r="3" fill="#1A73E8" fill-opacity="0.2"/>
<circle cx="131" cy="179" r="3" fill="#1A73E8" fill-opacity="0.2"/>
<circle cx="163" cy="179" r="3" fill="#1A73E8" fill-opacity="0.2"/>
<circle cx="195" cy="179" r="3" fill="#1A73E8" fill-opacity="0.2"/>
<circle cx="227" cy="179" r="3" fill="#1A73E8" fill-opacity="0.2"/>
<circle cx="259" cy="179" r="3" fill="#1A73E8" fill-opacity="0.2"/>
<circle cx="291" cy="179" r="3" fill="#1A73E8" fill-opacity="0.2"/>
<circle cx="323" cy="179" r="3" fill="#1A73E8" fill-opacity="0.2"/>
<circle cx="19" cy="179" r="3" fill="#1A73E8" fill-opacity="0.2"/>
<circle cx="51" cy="179" r="3" fill="#1A73E8" fill-opacity="0.2"/>
<circle cx="83" cy="179" r="3" fill="#1A73E8" fill-opacity="0.2"/>
<circle cx="115" cy="179" r="3" fill="#1A73E8" fill-opacity="0.2"/>
<circle cx="147" cy="179" r="3" fill="#1A73E8" fill-opacity="0.2"/>
<circle cx="179" cy="179" r="3" fill="#1A73E8" fill-opacity="0.2"/>
<circle cx="211" cy="179" r="3" fill="#1A73E8" fill-opacity="0.2"/>
<circle cx="243" cy="179" r="3" fill="#1A73E8" fill-opacity="0.2"/>
<circle cx="275" cy="179" r="3" fill="#1A73E8" fill-opacity="0.2"/>
<circle cx="307" cy="179" r="3" fill="#1A73E8" fill-opacity="0.2"/>
<circle cx="3" cy="195" r="3" fill="#1A73E8" fill-opacity="0.2"/>
<circle cx="35" cy="195" r="3" fill="#1A73E8" fill-opacity="0.2"/>
<circle cx="67" cy="195" r="3" fill="#1A73E8" fill-opacity="0.2"/>
<circle cx="99" cy="195" r="3" fill="#1A73E8" fill-opacity="0.2"/>
<circle cx="131" cy="195" r="3" fill="#1A73E8" fill-opacity="0.2"/>
<circle cx="163" cy="195" r="3" fill="#1A73E8" fill-opacity="0.2"/>
<circle cx="195" cy="195" r="3" fill="#1A73E8" fill-opacity="0.2"/>
<circle cx="227" cy="195" r="3" fill="#1A73E8" fill-opacity="0.2"/>
<circle cx="259" cy="195" r="3" fill="#1A73E8" fill-opacity="0.2"/>
<circle cx="291" cy="195" r="3" fill="#1A73E8" fill-opacity="0.2"/>
<circle cx="323" cy="195" r="3" fill="#1A73E8" fill-opacity="0.2"/>
<circle cx="19" cy="195" r="3" fill="#1A73E8" fill-opacity="0.2"/>
<circle cx="51" cy="195" r="3" fill="#1A73E8" fill-opacity="0.2"/>
<circle cx="83" cy="195" r="3" fill="#1A73E8" fill-opacity="0.2"/>
<circle cx="115" cy="195" r="3" fill="#1A73E8" fill-opacity="0.2"/>
<circle cx="147" cy="195" r="3" fill="#1A73E8" fill-opacity="0.2"/>
<circle cx="179" cy="195" r="3" fill="#1A73E8" fill-opacity="0.2"/>
<circle cx="211" cy="195" r="3" fill="#1A73E8" fill-opacity="0.2"/>
<circle cx="243" cy="195" r="3" fill="#1A73E8" fill-opacity="0.2"/>
<circle cx="275" cy="195" r="3" fill="#1A73E8" fill-opacity="0.2"/>
<circle cx="307" cy="195" r="3" fill="#1A73E8" fill-opacity="0.2"/>
<circle cx="3" cy="211" r="3" fill="#1A73E8" fill-opacity="0.2"/>
<circle cx="35" cy="211" r="3" fill="#1A73E8" fill-opacity="0.2"/>
<circle cx="67" cy="211" r="3" fill="#1A73E8" fill-opacity="0.2"/>
<circle cx="99" cy="211" r="3" fill="#1A73E8" fill-opacity="0.2"/>
<circle cx="131" cy="211" r="3" fill="#1A73E8" fill-opacity="0.2"/>
<circle cx="163" cy="211" r="3" fill="#1A73E8" fill-opacity="0.2"/>
<circle cx="195" cy="211" r="3" fill="#1A73E8" fill-opacity="0.2"/>
<circle cx="227" cy="211" r="3" fill="#1A73E8" fill-opacity="0.2"/>
<circle cx="259" cy="211" r="3" fill="#1A73E8" fill-opacity="0.2"/>
<circle cx="291" cy="211" r="3" fill="#1A73E8" fill-opacity="0.2"/>
<circle cx="323" cy="211" r="3" fill="#1A73E8" fill-opacity="0.2"/>
<circle cx="19" cy="211" r="3" fill="#1A73E8" fill-opacity="0.2"/>
<circle cx="51" cy="211" r="3" fill="#1A73E8" fill-opacity="0.2"/>
<circle cx="83" cy="211" r="3" fill="#1A73E8" fill-opacity="0.2"/>
<circle cx="115" cy="211" r="3" fill="#1A73E8" fill-opacity="0.2"/>
<circle cx="147" cy="211" r="3" fill="#1A73E8" fill-opacity="0.2"/>
<circle cx="179" cy="211" r="3" fill="#1A73E8" fill-opacity="0.2"/>
<circle cx="211" cy="211" r="3" fill="#1A73E8" fill-opacity="0.2"/>
<circle cx="243" cy="211" r="3" fill="#1A73E8" fill-opacity="0.2"/>
<circle cx="275" cy="211" r="3" fill="#1A73E8" fill-opacity="0.2"/>
<circle cx="307" cy="211" r="3" fill="#1A73E8" fill-opacity="0.2"/>
<circle cx="3" cy="227" r="3" fill="#1A73E8" fill-opacity="0.2"/>
<circle cx="35" cy="227" r="3" fill="#1A73E8" fill-opacity="0.2"/>
<circle cx="67" cy="227" r="3" fill="#1A73E8" fill-opacity="0.2"/>
<circle cx="99" cy="227" r="3" fill="#1A73E8" fill-opacity="0.2"/>
<circle cx="131" cy="227" r="3" fill="#1A73E8" fill-opacity="0.2"/>
<circle cx="163" cy="227" r="3" fill="#1A73E8" fill-opacity="0.2"/>
<circle cx="195" cy="227" r="3" fill="#1A73E8" fill-opacity="0.2"/>
<circle cx="227" cy="227" r="3" fill="#1A73E8" fill-opacity="0.2"/>
<circle cx="259" cy="227" r="3" fill="#1A73E8" fill-opacity="0.2"/>
<circle cx="291" cy="227" r="3" fill="#1A73E8" fill-opacity="0.2"/>
<circle cx="323" cy="227" r="3" fill="#1A73E8" fill-opacity="0.2"/>
<circle cx="19" cy="227" r="3" fill="#1A73E8" fill-opacity="0.2"/>
<circle cx="51" cy="227" r="3" fill="#1A73E8" fill-opacity="0.2"/>
<circle cx="83" cy="227" r="3" fill="#1A73E8" fill-opacity="0.2"/>
<circle cx="115" cy="227" r="3" fill="#1A73E8" fill-opacity="0.2"/>
<circle cx="147" cy="227" r="3" fill="#1A73E8" fill-opacity="0.2"/>
<circle cx="179" cy="227" r="3" fill="#1A73E8" fill-opacity="0.2"/>
<circle cx="211" cy="227" r="3" fill="#1A73E8" fill-opacity="0.2"/>
<circle cx="243" cy="227" r="3" fill="#1A73E8" fill-opacity="0.2"/>
<circle cx="275" cy="227" r="3" fill="#1A73E8" fill-opacity="0.2"/>
<circle cx="307" cy="227" r="3" fill="#1A73E8" fill-opacity="0.2"/>
<circle cx="3" cy="243" r="3" fill="#1A73E8" fill-opacity="0.2"/>
<circle cx="35" cy="243" r="3" fill="#1A73E8" fill-opacity="0.2"/>
<circle cx="67" cy="243" r="3" fill="#1A73E8" fill-opacity="0.2"/>
<circle cx="99" cy="243" r="3" fill="#1A73E8" fill-opacity="0.2"/>
<circle cx="131" cy="243" r="3" fill="#1A73E8" fill-opacity="0.2"/>
<circle cx="163" cy="243" r="3" fill="#1A73E8" fill-opacity="0.2"/>
<circle cx="195" cy="243" r="3" fill="#1A73E8" fill-opacity="0.2"/>
<circle cx="227" cy="243" r="3" fill="#1A73E8" fill-opacity="0.2"/>
<circle cx="259" cy="243" r="3" fill="#1A73E8" fill-opacity="0.2"/>
<circle cx="291" cy="243" r="3" fill="#1A73E8" fill-opacity="0.2"/>
<circle cx="323" cy="243" r="3" fill="#1A73E8" fill-opacity="0.2"/>
<circle cx="19" cy="243" r="3" fill="#1A73E8" fill-opacity="0.2"/>
<circle cx="51" cy="243" r="3" fill="#1A73E8" fill-opacity="0.2"/>
<circle cx="83" cy="243" r="3" fill="#1A73E8" fill-opacity="0.2"/>
<circle cx="115" cy="243" r="3" fill="#1A73E8" fill-opacity="0.2"/>
<circle cx="147" cy="243" r="3" fill="#1A73E8" fill-opacity="0.2"/>
<circle cx="179" cy="243" r="3" fill="#1A73E8" fill-opacity="0.2"/>
<circle cx="211" cy="243" r="3" fill="#1A73E8" fill-opacity="0.2"/>
<circle cx="243" cy="243" r="3" fill="#1A73E8" fill-opacity="0.2"/>
<circle cx="275" cy="243" r="3" fill="#1A73E8" fill-opacity="0.2"/>
<circle cx="307" cy="243" r="3" fill="#1A73E8" fill-opacity="0.2"/>
<circle cx="3" cy="259" r="3" fill="#1A73E8" fill-opacity="0.2"/>
<circle cx="35" cy="259" r="3" fill="#1A73E8" fill-opacity="0.2"/>
<circle cx="67" cy="259" r="3" fill="#1A73E8" fill-opacity="0.2"/>
<circle cx="99" cy="259" r="3" fill="#1A73E8" fill-opacity="0.2"/>
<circle cx="131" cy="259" r="3" fill="#1A73E8" fill-opacity="0.2"/>
<circle cx="163" cy="259" r="3" fill="#1A73E8" fill-opacity="0.2"/>
<circle cx="195" cy="259" r="3" fill="#1A73E8" fill-opacity="0.2"/>
<circle cx="227" cy="259" r="3" fill="#1A73E8" fill-opacity="0.2"/>
<circle cx="259" cy="259" r="3" fill="#1A73E8" fill-opacity="0.2"/>
<circle cx="291" cy="259" r="3" fill="#1A73E8" fill-opacity="0.2"/>
<circle cx="323" cy="259" r="3" fill="#1A73E8" fill-opacity="0.2"/>
<circle cx="19" cy="259" r="3" fill="#1A73E8" fill-opacity="0.2"/>
<circle cx="51" cy="259" r="3" fill="#1A73E8" fill-opacity="0.2"/>
<circle cx="83" cy="259" r="3" fill="#1A73E8" fill-opacity="0.2"/>
<circle cx="115" cy="259" r="3" fill="#1A73E8" fill-opacity="0.2"/>
<circle cx="147" cy="259" r="3" fill="#1A73E8" fill-opacity="0.2"/>
<circle cx="179" cy="259" r="3" fill="#1A73E8" fill-opacity="0.2"/>
<circle cx="211" cy="259" r="3" fill="#1A73E8" fill-opacity="0.2"/>
<circle cx="243" cy="259" r="3" fill="#1A73E8" fill-opacity="0.2"/>
<circle cx="275" cy="259" r="3" fill="#1A73E8" fill-opacity="0.2"/>
<circle cx="307" cy="259" r="3" fill="#1A73E8" fill-opacity="0.2"/>
<circle cx="3" cy="275" r="3" fill="#1A73E8" fill-opacity="0.2"/>
<circle cx="35" cy="275" r="3" fill="#1A73E8" fill-opacity="0.2"/>
<circle cx="67" cy="275" r="3" fill="#1A73E8" fill-opacity="0.2"/>
<circle cx="99" cy="275" r="3" fill="#1A73E8" fill-opacity="0.2"/>
<circle cx="131" cy="275" r="3" fill="#1A73E8" fill-opacity="0.2"/>
<circle cx="163" cy="275" r="3" fill="#1A73E8" fill-opacity="0.2"/>
<circle cx="195" cy="275" r="3" fill="#1A73E8" fill-opacity="0.2"/>
<circle cx="227" cy="275" r="3" fill="#1A73E8" fill-opacity="0.2"/>
<circle cx="259" cy="275" r="3" fill="#1A73E8" fill-opacity="0.2"/>
<circle cx="291" cy="275" r="3" fill="#1A73E8" fill-opacity="0.2"/>
<circle cx="323" cy="275" r="3" fill="#1A73E8" fill-opacity="0.2"/>
<circle cx="19" cy="275" r="3" fill="#1A73E8" fill-opacity="0.2"/>
<circle cx="51" cy="275" r="3" fill="#1A73E8" fill-opacity="0.2"/>
<circle cx="83" cy="275" r="3" fill="#1A73E8" fill-opacity="0.2"/>
<circle cx="115" cy="275" r="3" fill="#1A73E8" fill-opacity="0.2"/>
<circle cx="147" cy="275" r="3" fill="#1A73E8" fill-opacity="0.2"/>
<circle cx="179" cy="275" r="3" fill="#1A73E8" fill-opacity="0.2"/>
<circle cx="211" cy="275" r="3" fill="#1A73E8" fill-opacity="0.2"/>
<circle cx="243" cy="275" r="3" fill="#1A73E8" fill-opacity="0.2"/>
<circle cx="275" cy="275" r="3" fill="#1A73E8" fill-opacity="0.2"/>
<circle cx="307" cy="275" r="3" fill="#1A73E8" fill-opacity="0.2"/>
<circle cx="3" cy="291" r="3" fill="#1A73E8" fill-opacity="0.2"/>
<circle cx="35" cy="291" r="3" fill="#1A73E8" fill-opacity="0.2"/>
<circle cx="67" cy="291" r="3" fill="#1A73E8" fill-opacity="0.2"/>
<circle cx="99" cy="291" r="3" fill="#1A73E8" fill-opacity="0.2"/>
<circle cx="131" cy="291" r="3" fill="#1A73E8" fill-opacity="0.2"/>
<circle cx="163" cy="291" r="3" fill="#1A73E8" fill-opacity="0.2"/>
<circle cx="195" cy="291" r="3" fill="#1A73E8" fill-opacity="0.2"/>
<circle cx="227" cy="291" r="3" fill="#1A73E8" fill-opacity="0.2"/>
<circle cx="259" cy="291" r="3" fill="#1A73E8" fill-opacity="0.2"/>
<circle cx="291" cy="291" r="3" fill="#1A73E8" fill-opacity="0.2"/>
<circle cx="323" cy="291" r="3" fill="#1A73E8" fill-opacity="0.2"/>
<circle cx="19" cy="291" r="3" fill="#1A73E8" fill-opacity="0.2"/>
<circle cx="51" cy="291" r="3" fill="#1A73E8" fill-opacity="0.2"/>
<circle cx="83" cy="291" r="3" fill="#1A73E8" fill-opacity="0.2"/>
<circle cx="115" cy="291" r="3" fill="#1A73E8" fill-opacity="0.2"/>
<circle cx="147" cy="291" r="3" fill="#1A73E8" fill-opacity="0.2"/>
<circle cx="179" cy="291" r="3" fill="#1A73E8" fill-opacity="0.2"/>
<circle cx="211" cy="291" r="3" fill="#1A73E8" fill-opacity="0.2"/>
<circle cx="243" cy="291" r="3" fill="#1A73E8" fill-opacity="0.2"/>
<circle cx="275" cy="291" r="3" fill="#1A73E8" fill-opacity="0.2"/>
<circle cx="307" cy="291" r="3" fill="#1A73E8" fill-opacity="0.2"/>
<circle cx="3" cy="307" r="3" fill="#1A73E8" fill-opacity="0.2"/>
<circle cx="35" cy="307" r="3" fill="#1A73E8" fill-opacity="0.2"/>
<circle cx="67" cy="307" r="3" fill="#1A73E8" fill-opacity="0.2"/>
<circle cx="99" cy="307" r="3" fill="#1A73E8" fill-opacity="0.2"/>
<circle cx="131" cy="307" r="3" fill="#1A73E8" fill-opacity="0.2"/>
<circle cx="163" cy="307" r="3" fill="#1A73E8" fill-opacity="0.2"/>
<circle cx="195" cy="307" r="3" fill="#1A73E8" fill-opacity="0.2"/>
<circle cx="227" cy="307" r="3" fill="#1A73E8" fill-opacity="0.2"/>
<circle cx="259" cy="307" r="3" fill="#1A73E8" fill-opacity="0.2"/>
<circle cx="291" cy="307" r="3" fill="#1A73E8" fill-opacity="0.2"/>
<circle cx="323" cy="307" r="3" fill="#1A73E8" fill-opacity="0.2"/>
<circle cx="19" cy="307" r="3" fill="#1A73E8" fill-opacity="0.2"/>
<circle cx="51" cy="307" r="3" fill="#1A73E8" fill-opacity="0.2"/>
<circle cx="83" cy="307" r="3" fill="#1A73E8" fill-opacity="0.2"/>
<circle cx="115" cy="307" r="3" fill="#1A73E8" fill-opacity="0.2"/>
<circle cx="147" cy="307" r="3" fill="#1A73E8" fill-opacity="0.2"/>
<circle cx="179" cy="307" r="3" fill="#1A73E8" fill-opacity="0.2"/>
<circle cx="211" cy="307" r="3" fill="#1A73E8" fill-opacity="0.2"/>
<circle cx="243" cy="307" r="3" fill="#1A73E8" fill-opacity="0.2"/>
<circle cx="275" cy="307" r="3" fill="#1A73E8" fill-opacity="0.2"/>
<circle cx="307" cy="307" r="3" fill="#1A73E8" fill-opacity="0.2"/>
<circle cx="3" cy="323" r="3" fill="#1A73E8" fill-opacity="0.2"/>
<circle cx="35" cy="323" r="3" fill="#1A73E8" fill-opacity="0.2"/>
<circle cx="67" cy="323" r="3" fill="#1A73E8" fill-opacity="0.2"/>
<circle cx="99" cy="323" r="3" fill="#1A73E8" fill-opacity="0.2"/>
<circle cx="131" cy="323" r="3" fill="#1A73E8" fill-opacity="0.2"/>
<circle cx="163" cy="323" r="3" fill="#1A73E8" fill-opacity="0.2"/>
<circle cx="195" cy="323" r="3" fill="#1A73E8" fill-opacity="0.2"/>
<circle cx="227" cy="323" r="3" fill="#1A73E8" fill-opacity="0.2"/>
<circle cx="259" cy="323" r="3" fill="#1A73E8" fill-opacity="0.2"/>
<circle cx="291" cy="323" r="3" fill="#1A73E8" fill-opacity="0.2"/>
<circle cx="323" cy="323" r="3" fill="#1A73E8" fill-opacity="0.2"/>
<circle cx="19" cy="323" r="3" fill="#1A73E8" fill-opacity="0.2"/>
<circle cx="51" cy="323" r="3" fill="#1A73E8" fill-opacity="0.2"/>
<circle cx="83" cy="323" r="3" fill="#1A73E8" fill-opacity="0.2"/>
<circle cx="115" cy="323" r="3" fill="#1A73E8" fill-opacity="0.2"/>
<circle cx="147" cy="323" r="3" fill="#1A73E8" fill-opacity="0.2"/>
<circle cx="179" cy="323" r="3" fill="#1A73E8" fill-opacity="0.2"/>
<circle cx="211" cy="323" r="3" fill="#1A73E8" fill-opacity="0.2"/>
<circle cx="243" cy="323" r="3" fill="#1A73E8" fill-opacity="0.2"/>
<circle cx="275" cy="323" r="3" fill="#1A73E8" fill-opacity="0.2"/>
<circle cx="307" cy="323" r="3" fill="#1A73E8" fill-opacity="0.2"/>
<circle cx="3" cy="339" r="3" fill="#1A73E8" fill-opacity="0.2"/>
<circle cx="35" cy="339" r="3" fill="#1A73E8" fill-opacity="0.2"/>
<circle cx="67" cy="339" r="3" fill="#1A73E8" fill-opacity="0.2"/>
<circle cx="99" cy="339" r="3" fill="#1A73E8" fill-opacity="0.2"/>
<circle cx="131" cy="339" r="3" fill="#1A73E8" fill-opacity="0.2"/>
<circle cx="163" cy="339" r="3" fill="#1A73E8" fill-opacity="0.2"/>
<circle cx="195" cy="339" r="3" fill="#1A73E8" fill-opacity="0.2"/>
<circle cx="227" cy="339" r="3" fill="#1A73E8" fill-opacity="0.2"/>
<circle cx="259" cy="339" r="3" fill="#1A73E8" fill-opacity="0.2"/>
<circle cx="291" cy="339" r="3" fill="#1A73E8" fill-opacity="0.2"/>
<circle cx="323" cy="339" r="3" fill="#1A73E8" fill-opacity="0.2"/>
<circle cx="19" cy="339" r="3" fill="#1A73E8" fill-opacity="0.2"/>
<circle cx="51" cy="339" r="3" fill="#1A73E8" fill-opacity="0.2"/>
<circle cx="83" cy="339" r="3" fill="#1A73E8" fill-opacity="0.2"/>
<circle cx="115" cy="339" r="3" fill="#1A73E8" fill-opacity="0.2"/>
<circle cx="147" cy="339" r="3" fill="#1A73E8" fill-opacity="0.2"/>
<circle cx="179" cy="339" r="3" fill="#1A73E8" fill-opacity="0.2"/>
<circle cx="211" cy="339" r="3" fill="#1A73E8" fill-opacity="0.2"/>
<circle cx="243" cy="339" r="3" fill="#1A73E8" fill-opacity="0.2"/>
<circle cx="275" cy="339" r="3" fill="#1A73E8" fill-opacity="0.2"/>
<circle cx="307" cy="339" r="3" fill="#1A73E8" fill-opacity="0.2"/>
<circle cx="3" cy="355" r="3" fill="#1A73E8" fill-opacity="0.2"/>
<circle cx="35" cy="355" r="3" fill="#1A73E8" fill-opacity="0.2"/>
<circle cx="67" cy="355" r="3" fill="#1A73E8" fill-opacity="0.2"/>
<circle cx="99" cy="355" r="3" fill="#1A73E8" fill-opacity="0.2"/>
<circle cx="131" cy="355" r="3" fill="#1A73E8" fill-opacity="0.2"/>
<circle cx="163" cy="355" r="3" fill="#1A73E8" fill-opacity="0.2"/>
<circle cx="195" cy="355" r="3" fill="#1A73E8" fill-opacity="0.2"/>
<circle cx="227" cy="355" r="3" fill="#1A73E8" fill-opacity="0.2"/>
<circle cx="259" cy="355" r="3" fill="#1A73E8" fill-opacity="0.2"/>
<circle cx="291" cy="355" r="3" fill="#1A73E8" fill-opacity="0.2"/>
<circle cx="323" cy="355" r="3" fill="#1A73E8" fill-opacity="0.2"/>
<circle cx="19" cy="355" r="3" fill="#1A73E8" fill-opacity="0.2"/>
<circle cx="51" cy="355" r="3" fill="#1A73E8" fill-opacity="0.2"/>
<circle cx="83" cy="355" r="3" fill="#1A73E8" fill-opacity="0.2"/>
<circle cx="115" cy="355" r="3" fill="#1A73E8" fill-opacity="0.2"/>
<circle cx="147" cy="355" r="3" fill="#1A73E8" fill-opacity="0.2"/>
<circle cx="179" cy="355" r="3" fill="#1A73E8" fill-opacity="0.2"/>
<circle cx="211" cy="355" r="3" fill="#1A73E8" fill-opacity="0.2"/>
<circle cx="243" cy="355" r="3" fill="#1A73E8" fill-opacity="0.2"/>
<circle cx="275" cy="355" r="3" fill="#1A73E8" fill-opacity="0.2"/>
<circle cx="307" cy="355" r="3" fill="#1A73E8" fill-opacity="0.2"/>
</svg>
