<svg width="121" height="86" viewBox="0 0 121 86" fill="none" xmlns="http://www.w3.org/2000/svg">
<path d="M95.4611 31.7024C95.218 29.0749 95.404 21.9324 102.246 12.0003C102.764 11.2508 102.67 10.2399 102.027 9.59735C99.2376 6.80773 97.5105 5.04741 96.299 3.8156C94.7061 2.19141 93.9789 1.45135 92.9145 0.486342C92.2039 -0.152472 91.1285 -0.163596 90.4103 0.462584C78.4841 10.8403 65.2376 32.2843 67.1544 58.5563C68.2776 73.9829 79.53 85.18 93.9089 85.18C108.665 85.18 120.671 73.1764 120.671 58.42C120.671 44.1847 109.498 32.5107 95.4611 31.7024ZM93.9089 81.409C81.5609 81.409 71.8921 71.6831 70.9145 58.2839C70.9145 58.2839 70.9145 58.2839 70.9145 58.282C68.7582 28.7342 86.3225 9.5421 91.6293 4.46007C92.1467 4.9701 92.7378 5.57026 93.6088 6.45777C94.6582 7.52573 96.0946 8.98776 98.2673 11.168C89.961 23.9652 91.5281 33.0834 92.2148 34.3908C92.5408 35.0113 93.2092 35.4293 93.9089 35.4293C106.586 35.4293 116.9 45.7425 116.9 58.42C116.9 71.0958 106.586 81.409 93.9089 81.409Z" fill="#1A73E8" fill-opacity="0.1"/>
<path d="M28.4959 31.7022C28.251 29.0821 28.4314 21.945 35.2811 12C35.7968 11.2505 35.7046 10.2397 35.062 9.59712C32.2779 6.81297 30.5526 5.05454 29.3429 3.82273C27.7447 2.19496 27.0154 1.45282 25.9512 0.486115C25.2403 -0.152699 24.165 -0.161938 23.447 0.460472C11.5208 10.8382 -1.72764 32.2786 0.185407 58.5561V58.558C1.31238 73.9826 12.5665 85.1798 26.9454 85.1798C41.7019 85.1798 53.7073 73.1762 53.7073 58.4198C53.7073 44.1828 42.5341 32.5069 28.4959 31.7022ZM26.9454 81.4087C14.5994 81.4087 4.92503 71.6829 3.9455 58.2817V58.2836C1.79488 28.7285 19.3592 9.53999 24.6658 4.45984C25.1851 4.96988 25.7781 5.57381 26.6509 6.46321C27.6985 7.53116 29.133 8.99131 31.3021 11.1678C22.9958 23.9668 24.5629 33.0831 25.2496 34.3887C25.5756 35.0092 26.2457 35.4291 26.9454 35.4291C39.6231 35.4291 49.9363 45.7423 49.9363 58.4198C49.9363 71.0955 39.6231 81.4087 26.9454 81.4087Z" fill="#1A73E8" fill-opacity="0.1"/>
</svg>
